<svg width="18" height="18" viewBox="0 0 18 18" fill="none" xmlns="http://www.w3.org/2000/svg">
<path d="M17.1447 3.10532C17.0745 3.03517 16.9846 2.99991 16.8753 2.99991H13.2541L12.4338 1.04299C12.3166 0.753857 12.1056 0.507743 11.8011 0.304605C11.4963 0.101508 11.1875 0 10.8751 0H7.12503C6.81262 0 6.50395 0.101508 6.19927 0.304605C5.89454 0.507743 5.6836 0.753816 5.56637 1.04299L4.74606 2.99991H1.12496C1.01549 2.99991 0.92576 3.03517 0.855407 3.10532C0.785259 3.17563 0.75 3.26552 0.75 3.37487V4.12495C0.75 4.2343 0.785095 4.32419 0.855407 4.39438C0.92576 4.46465 1.01565 4.49978 1.12496 4.49978H2.24987V15.6562C2.24987 16.3048 2.43347 16.8574 2.80063 17.3144C3.16787 17.7716 3.60929 18 4.12495 18H13.8752C14.391 18 14.8323 17.7637 15.1995 17.2912C15.5667 16.8183 15.7502 16.2579 15.7502 15.6095V4.49978H16.8753C16.9846 4.49978 17.0745 4.46465 17.1447 4.39438C17.2148 4.32423 17.2502 4.2343 17.2502 4.12495V3.37487C17.2502 3.26552 17.2148 3.17563 17.1447 3.10532ZM6.94931 1.62864C7.00394 1.55836 7.07039 1.51527 7.14851 1.49975H10.8634C10.9415 1.51539 11.008 1.55845 11.0626 1.62864L11.6253 2.99975H6.37507L6.94931 1.62864ZM14.2503 15.6095C14.2503 15.7814 14.223 15.9396 14.1682 16.0841C14.1135 16.2285 14.0567 16.334 13.9983 16.4004C13.9395 16.467 13.8988 16.5 13.8752 16.5H4.12499C4.10155 16.5 4.06075 16.467 4.00202 16.4004C3.94336 16.334 3.88668 16.2285 3.83196 16.0841C3.77733 15.9396 3.74999 15.7812 3.74999 15.6095V4.49978H14.2503V15.6095H14.2503Z" fill="#7D7D7D"/>
<path d="M5.62496 14.2501H6.37492C6.48439 14.2501 6.57432 14.215 6.64447 14.1448C6.71461 14.0743 6.74987 13.9846 6.74987 13.8751V7.12487C6.74987 7.01556 6.71461 6.92567 6.64447 6.85531C6.57411 6.78517 6.48443 6.75003 6.37492 6.75003H5.62496C5.51549 6.75003 5.42572 6.78513 5.35541 6.85531C5.28518 6.92567 5.25 7.01556 5.25 7.12487V13.8751C5.25 13.9846 5.28505 14.0743 5.35541 14.1448C5.42572 14.215 5.51549 14.2501 5.62496 14.2501Z" fill="#7D7D7D"/>
<path d="M8.62496 14.2501H9.37491C9.48434 14.2501 9.57424 14.215 9.64434 14.1448C9.71486 14.0743 9.74979 13.9846 9.74979 13.8751V7.12487C9.74979 7.01556 9.71482 6.92567 9.64434 6.85531C9.57424 6.78517 9.48434 6.75003 9.37491 6.75003H8.62496C8.51561 6.75003 8.42572 6.78513 8.35541 6.85531C8.28505 6.92567 8.25 7.01556 8.25 7.12487V13.8751C8.25 13.9846 8.28505 14.0743 8.35541 14.1448C8.42568 14.215 8.51561 14.2501 8.62496 14.2501Z" fill="#7D7D7D"/>
<path d="M11.6255 14.2501H12.3754C12.4849 14.2501 12.5748 14.215 12.645 14.1448C12.7153 14.0743 12.7502 13.9846 12.7502 13.8751V7.12487C12.7502 7.01556 12.7152 6.92567 12.645 6.85531C12.5748 6.78517 12.4849 6.75003 12.3754 6.75003H11.6255C11.5159 6.75003 11.4263 6.78513 11.3558 6.85531C11.2856 6.92567 11.2505 7.01556 11.2505 7.12487V13.8751C11.2505 13.9846 11.2856 14.0743 11.3558 14.1448C11.4263 14.215 11.5159 14.2501 11.6255 14.2501Z" fill="#7D7D7D"/>
</svg>
