<svg width="260" height="115" viewBox="0 0 260 115" fill="none" xmlns="http://www.w3.org/2000/svg">
<path d="M9.41673 100.812V105.292C9.41673 106.396 8.19377 107.255 6.72623 107.255H2.56818V114.373H1.34523V98.7876H2.26245H2.56818H6.72623C8.19377 98.7876 9.41673 99.708 9.41673 100.812ZM8.19377 105.292V100.812C8.19377 100.138 7.58229 99.4626 6.72623 99.4626H2.56818V106.58H6.72623C7.58229 106.58 8.19377 105.905 8.19377 105.292Z" fill="white"/>
<path d="M29.1675 106.58H25.8044V114.372H24.6425V98.7873H25.4986H25.8044H29.9624C31.4299 98.7873 32.6529 99.7077 32.6529 100.812V104.555C32.6529 105.66 31.5522 106.334 30.5127 106.519L33.6924 114.311H32.4083L29.1675 106.58ZM25.8044 105.905H29.9624C30.8185 105.905 31.4299 105.23 31.4299 104.555V100.812C31.4299 100.137 30.8185 99.4623 29.9624 99.4623H25.8044V105.905Z" fill="white"/>
<path d="M56.2559 100.812V112.348C56.2559 113.452 55.0329 114.434 53.5654 114.434H50.5692C49.1016 114.434 47.8787 113.452 47.8787 112.348V100.812C47.8787 99.708 49.1016 98.7262 50.5692 98.7262H53.5654C55.0329 98.7262 56.2559 99.708 56.2559 100.812ZM55.0329 112.348V100.812C55.0329 100.137 54.4215 99.4012 53.5042 99.4012H50.508C49.6519 99.4012 49.0405 100.137 49.0405 100.812V112.348C49.0405 113.023 49.6519 113.759 50.508 113.759H53.5042C54.4215 113.759 55.0329 113.023 55.0329 112.348Z" fill="white"/>
<path d="M73.1938 99.4623V105.721H78.5136V106.396H73.1938V114.434H71.9709V106.396V105.721V99.4623V98.7873H73.1938H79.1251V99.4623H73.1938Z" fill="white"/>
<path d="M100.894 113.698V114.372H94.5344H94.2286H93.3114V98.7873H100.771V99.4623H94.5344V105.721H99.5485V106.396H94.5344V113.759H100.894V113.698Z" fill="white"/>
<path d="M123.335 109.28V112.409C123.335 113.514 122.173 114.434 120.706 114.495H117.648C116.181 114.495 115.019 113.514 115.019 112.409V109.28H116.242V112.409C116.242 113.084 116.853 113.82 117.709 113.82H120.706C121.562 113.82 122.234 113.084 122.234 112.409V109.28C122.234 108.421 121.745 108.114 120.767 107.623C119.666 107.01 118.382 106.273 117.159 105.66C115.814 104.985 115.386 104.371 115.386 103.512V100.812C115.386 99.708 116.548 98.7262 118.015 98.7262H120.461C121.929 98.7262 123.09 99.708 123.09 100.812V103.942H121.867V100.812C121.867 100.137 121.256 99.4012 120.4 99.4012H117.954C117.098 99.4012 116.486 100.137 116.486 100.812V103.267C116.486 104.371 117.037 104.617 118.015 105.046C118.871 105.476 120.828 106.58 121.806 107.071C123.335 107.869 123.335 108.666 123.335 109.28Z" fill="white"/>
<path d="M146.754 109.28V112.409C146.754 113.514 145.593 114.434 144.125 114.495H141.068C139.6 114.495 138.438 113.514 138.438 112.409V109.28H139.661V112.409C139.661 113.084 140.273 113.82 141.129 113.82H144.125C144.981 113.82 145.654 113.084 145.654 112.409V109.28C145.654 108.421 145.165 108.114 144.186 107.623C143.086 107.01 141.801 106.273 140.579 105.66C139.233 104.985 138.805 104.371 138.805 103.512V100.812C138.805 99.708 139.967 98.7262 141.435 98.7262H143.881C145.348 98.7262 146.51 99.708 146.51 100.812V103.942H145.287V100.812C145.287 100.137 144.675 99.4012 143.819 99.4012H141.373C140.517 99.4012 139.906 100.137 139.906 100.812V103.267C139.906 104.371 140.456 104.617 141.435 105.046C142.291 105.476 144.247 106.58 145.226 107.071C146.754 107.869 146.754 108.666 146.754 109.28Z" fill="white"/>
<path d="M163.57 114.372H162.347V98.7873H163.57V114.372Z" fill="white"/>
<path d="M187.723 100.812V112.348C187.723 113.452 186.5 114.434 185.033 114.434H182.037C180.569 114.434 179.346 113.452 179.346 112.348V100.812C179.346 99.708 180.569 98.7262 182.037 98.7262H185.033C186.5 98.7262 187.723 99.708 187.723 100.812ZM186.562 112.348V100.812C186.562 100.137 185.95 99.4012 185.033 99.4012H182.037C181.181 99.4012 180.569 100.137 180.569 100.812V112.348C180.569 113.023 181.181 113.759 182.037 113.759H185.033C185.95 113.759 186.562 113.023 186.562 112.348Z" fill="white"/>
<path d="M211.816 98.7873V114.372H210.837H210.654H209.431L204.661 99.585V114.372H203.438V98.7873H204.356H204.6H205.517L210.531 113.82V98.7873H211.816Z" fill="white"/>
<path d="M233.156 109.219H228.509L227.286 114.311H226.185L230.038 98.7262H230.649H231.077H231.75L235.602 114.311H234.44L233.156 109.219ZM233.034 108.605L230.894 99.6466L228.692 108.605H233.034Z" fill="white"/>
<path d="M257.248 113.698V114.372H251.623H250.4V113.698V98.7873H251.623V113.698H257.248Z" fill="white"/>
<path d="M48.4901 69.8876C47.4506 70.0103 46.1665 70.133 44.7601 70.2558C43.5983 70.3171 33.9981 70.6239 31.3688 69.8263C28.984 69.0286 27.2107 67.8014 25.9266 66.0834C24.6425 64.2426 23.7253 61.7883 23.2973 58.659C22.8692 55.2842 22.6246 51.0505 22.6246 46.0191L22.3801 16.0146C22.3801 8.71294 19.2615 0 4.40263 0H0L0.122295 0.674946H3.48542C18.3443 0.674946 21.4628 9.38789 21.4628 16.6896L21.7074 46.694C21.7074 51.7254 21.952 55.9592 22.3801 59.2726C22.8081 62.3405 23.6642 64.8562 25.0094 66.697C26.2324 68.4764 28.0056 69.7035 30.4515 70.4398C33.0198 71.2989 42.6811 70.9921 43.8429 70.8694C45.3104 70.808 46.5334 70.6853 47.5729 70.5012L50.0188 70.1331V73.3851C50.0188 74.9804 49.5908 76.6371 48.857 78.2938C48.1232 79.8891 46.9614 81.3617 45.4327 82.6502C45.6773 82.4662 45.9219 82.2821 46.1665 82.098C47.7563 80.8095 48.9793 79.2755 49.7742 77.6188C50.5691 75.9621 50.936 74.3054 50.936 72.7101V69.4581L48.4901 69.8876Z" fill="white"/>
<path d="M43.1092 72.0361C41.9474 72.0975 32.3472 72.4043 29.7179 71.6066C27.3331 70.809 25.5598 69.5818 24.2757 67.8637C22.9916 66.023 22.0744 63.5686 21.6464 60.4393C21.1572 57.0646 20.9737 52.8309 20.9737 47.8608L20.7903 17.8564C20.7903 10.5547 17.6718 1.84174 2.75172 1.84174H0.183517L0.672699 4.4188C0.733847 4.7256 0.794994 5.27783 0.91729 6.38228C0.978437 7.17995 1.03959 8.2844 1.03959 9.6343C1.03959 11.1069 1.10073 13.0704 1.16188 15.402V47.1858C1.16188 54.7943 1.71221 61.2984 2.75172 66.5139C3.85238 71.9748 5.87025 76.3926 8.74419 79.7673C11.6793 83.1421 15.5927 85.5964 20.4846 87.0077C25.1318 88.3576 33.6925 88.603 38.7677 87.1917C41.0913 86.5782 42.9258 85.2896 44.4544 84.0625C46.0443 82.7739 47.2672 81.24 48.0622 79.5833C48.8571 77.9266 49.224 76.2699 49.224 74.6746V71.4226L46.7781 71.7907C45.7997 71.8521 44.5767 71.9748 43.1092 72.0361Z" fill="white"/>
<path d="M89.8282 1.59605L89.339 4.17312C89.2778 4.47992 89.2167 5.03214 89.0944 6.07524C89.0333 6.93427 88.9721 8.03872 88.911 9.38862C88.8498 10.7999 88.8498 12.6406 88.8498 15.0336L88.6052 72.22C88.6052 77.6195 86.8931 81.6079 83.5911 84.0622C80.4726 86.3325 76.0088 87.4983 70.3221 87.4983H71.7896C77.4763 87.4983 81.9401 86.3325 85.0587 84.0622C88.3606 81.6079 90.0728 77.6195 90.0728 72.22L90.3174 15.0336C90.3174 12.6406 90.3174 10.7999 90.3785 9.38862C90.4397 7.97736 90.5008 6.87291 90.562 6.07524C90.6842 5.03214 90.7454 4.41856 90.8065 4.17312L91.2957 1.59605H89.8282Z" fill="white"/>
<path d="M177.756 7.42447C177.634 6.6268 177.512 5.82914 177.328 5.15419C177.267 4.90876 177.206 4.72468 177.206 4.47925C176.839 2.7612 175.372 1.53403 173.721 1.53403H172.559C174.271 1.53403 175.677 2.7612 176.044 4.47925C176.105 4.66332 176.167 4.90876 176.167 5.15419C176.35 5.82914 176.533 6.6268 176.595 7.42447C176.717 8.22213 176.717 9.14251 176.717 10.0629C176.717 13.0695 176.411 15.8306 175.8 18.2236C175.188 20.6166 174.332 22.7642 173.231 24.6663C172.192 26.507 170.969 28.2864 169.624 29.8204C168.401 31.293 167.117 32.7656 165.833 34.2382C165.771 34.2996 165.771 34.361 165.71 34.361C165.038 35.0359 163.937 36.2017 162.469 37.7357C160.941 39.331 159.229 41.1718 157.211 43.258C155.193 45.3442 153.053 47.6144 150.729 50.0688C148.405 52.4618 146.082 54.9161 143.758 57.3705C139.356 62.0337 134.525 67.0652 129.389 72.4647H130.55C135.687 67.0652 140.517 62.0337 144.92 57.3705C147.244 54.9161 149.567 52.4618 151.891 50.0688C154.214 47.6144 156.355 45.3442 158.373 43.258C160.329 41.1718 162.103 39.331 163.631 37.7357C165.099 36.2017 166.199 35.0359 166.872 34.361C166.933 34.2996 166.994 34.2382 166.994 34.2382C168.278 32.7656 169.563 31.2317 170.786 29.8204C172.131 28.2251 173.354 26.507 174.393 24.6663C175.494 22.7642 176.35 20.6166 176.961 18.2236C177.573 15.8306 177.879 13.1308 177.879 10.0629C177.879 9.14251 177.818 8.22213 177.756 7.42447Z" fill="white"/>
<path d="M259.878 7.42447C259.755 6.6268 259.633 5.82914 259.45 5.15419C259.389 4.90876 259.327 4.72468 259.327 4.47925C258.96 2.7612 257.493 1.53403 255.842 1.53403H254.68C256.392 1.53403 257.799 2.7612 258.166 4.47925C258.227 4.66332 258.288 4.90876 258.288 5.15419C258.471 5.82914 258.655 6.6268 258.716 7.42447C258.838 8.22213 258.838 9.14251 258.838 10.0629C258.838 13.0695 258.532 15.8306 257.921 18.2236C257.309 20.6166 256.453 22.7642 255.353 24.6663C254.313 26.507 253.09 28.2864 251.745 29.8204C250.522 31.293 249.238 32.7656 247.954 34.2382C247.893 34.2996 247.893 34.361 247.832 34.361C247.159 35.0359 246.058 36.2017 244.591 37.7357C243.062 39.331 241.35 41.1718 239.332 43.258C237.314 45.3442 235.174 47.6144 232.85 50.0688C230.527 52.4618 228.203 54.9161 225.88 57.3705C221.477 62.0337 216.646 67.0652 211.51 72.4647H212.672C217.808 67.0652 222.639 62.0337 227.041 57.3705C229.365 54.9161 231.689 52.4618 234.012 50.0688C236.336 47.6144 238.476 45.3442 240.494 43.258C242.451 41.1718 244.224 39.331 245.753 37.7357C247.22 36.2017 248.321 35.0359 248.993 34.361C249.055 34.2996 249.116 34.2382 249.116 34.2382C250.4 32.7656 251.684 31.2317 252.907 29.8204C254.252 28.2251 255.475 26.507 256.515 24.6663C257.615 22.7642 258.471 20.6166 259.083 18.2236C259.694 15.8306 260 13.1308 260 10.0629C260 9.14251 259.939 8.22213 259.878 7.42447Z" fill="white"/>
<path d="M72.2766 4.97079C68.9134 7.36378 67.2013 11.3521 67.2013 16.813V73.938C67.1402 76.2697 67.079 78.2331 67.079 79.7057C67.079 81.117 67.0179 82.2215 66.9567 83.0191C66.8344 84.1236 66.7733 84.6758 66.7121 84.9212L66.2229 87.4983H68.7911C74.4779 87.4983 78.9417 86.3325 82.0602 84.0622C85.3622 81.6079 87.0743 77.6195 87.0743 72.22L87.3189 15.0336C87.3189 12.6406 87.3189 10.7999 87.38 9.38862C87.4412 7.97736 87.5023 6.87291 87.5635 6.07524C87.6858 5.03214 87.7469 4.41856 87.8081 4.17312L88.2973 1.59605H85.7291C79.92 1.59605 75.3951 2.70051 72.2766 4.97079Z" fill="white"/>
<path d="M149.017 49.4551C151.341 47.0622 153.481 44.8532 155.499 42.767C157.455 40.6808 159.229 38.9014 160.696 37.3061C162.164 35.7721 163.264 34.6677 163.937 33.9314C163.998 33.87 164.059 33.8087 164.059 33.8087C165.343 32.3361 166.627 30.8634 167.85 29.4522C169.196 27.9182 170.419 26.2002 171.458 24.3594C172.559 22.4573 173.415 20.3711 174.026 17.9781C174.638 15.6465 174.944 12.9467 174.944 9.94012C174.944 9.01974 174.882 8.09936 174.821 7.3017C174.699 6.50403 174.577 5.70637 174.393 5.03142C174.332 4.78599 174.271 4.60191 174.271 4.41784C173.904 2.69979 172.437 1.53398 170.786 1.53398H128.349C122.785 1.53398 118.81 1.47262 116.548 1.28854C114.224 1.10447 112.695 1.04311 112.084 0.920389L108.721 0.42952V3.62017C108.721 6.56539 109.332 9.0811 110.555 11.1059C111.656 13.0694 113.307 14.542 115.508 15.4624C117.342 16.3214 119.421 16.8737 121.562 17.1191C123.58 17.3032 125.659 17.4259 127.676 17.4259H153.053L116.425 55.0388C115.141 56.3887 113.857 57.7999 112.634 59.1498C111.35 60.6224 110.127 62.2791 109.088 64.0585C107.987 65.8993 107.131 68.0468 106.458 70.3785C105.786 72.7715 105.48 75.594 105.48 78.846C105.48 80.8095 105.602 82.4661 105.908 83.816C105.969 84.1228 106.03 84.3683 106.091 84.675C106.519 86.2704 107.926 87.3748 109.516 87.3748H155.254C160.696 87.3748 164.671 87.4362 167.056 87.5589C169.073 87.6816 170.48 87.743 171.275 87.8044L171.642 87.9884H175.005V85.1046C175.005 82.098 174.393 79.5823 173.109 77.6188C172.008 75.778 170.358 74.3054 168.217 73.2623C166.383 72.4033 164.304 71.8511 162.041 71.667C160.024 71.4829 157.945 71.4216 155.927 71.4216H127.738C132.874 66.0834 137.643 61.1747 142.107 56.5728C144.37 54.2411 146.693 51.8481 149.017 49.4551Z" fill="white"/>
<path d="M231.077 49.4551C233.401 47.0622 235.541 44.8532 237.559 42.767C239.516 40.6808 241.289 38.9014 242.756 37.3061C244.224 35.7721 245.325 34.6677 245.997 33.9314C246.058 33.87 246.119 33.8087 246.119 33.8087C247.404 32.3361 248.688 30.8634 249.911 29.4522C251.256 27.9182 252.479 26.2002 253.518 24.3594C254.619 22.4573 255.475 20.3711 256.087 17.9781C256.698 15.6465 257.004 12.9467 257.004 9.94012C257.004 9.01974 256.943 8.09936 256.881 7.3017C256.759 6.50403 256.637 5.70637 256.453 5.03142C256.392 4.78599 256.331 4.60191 256.331 4.41784C255.964 2.69979 254.497 1.53398 252.846 1.53398H210.348C204.784 1.53398 200.809 1.47262 198.547 1.28854C196.223 1.10447 194.694 1.04311 194.083 0.920389L190.72 0.42952V3.62017C190.72 6.56539 191.331 9.0811 192.554 11.1059C193.655 13.0694 195.306 14.542 197.507 15.4624C199.341 16.3214 201.42 16.8737 203.561 17.1191C205.579 17.3032 207.658 17.4259 209.675 17.4259H235.052L198.424 55.0388C197.14 56.3887 195.856 57.7999 194.633 59.1498C193.349 60.6224 192.126 62.2791 191.087 64.0585C189.986 65.8993 189.13 68.0468 188.457 70.3785C187.785 72.7715 187.479 75.594 187.479 78.846C187.479 80.8095 187.601 82.4661 187.907 83.816C187.968 84.1228 188.029 84.3683 188.09 84.675C188.518 86.2704 189.925 87.3748 191.515 87.3748H237.253C242.695 87.3748 246.67 87.4362 249.055 87.5589C251.072 87.6816 252.479 87.743 253.274 87.8044L253.641 87.9884H257.004V85.1046C257.004 82.098 256.392 79.5823 255.108 77.6188C254.008 75.778 252.357 74.3054 250.216 73.2623C248.382 72.4033 246.303 71.8511 244.04 71.667C242.023 71.4829 239.944 71.4216 237.926 71.4216H209.737C214.873 66.0834 219.643 61.1747 224.106 56.5728C226.491 54.2411 228.815 51.8481 231.077 49.4551Z" fill="white"/>
</svg>
